<?xml version="1.0" encoding="utf-8"?>
<!-- Generator: Adobe Illustrator 22.1.0, SVG Export Plug-In . SVG Version: 6.00 Build 0)  -->
<svg version="1.1" id="Laag_1" xmlns="http://www.w3.org/2000/svg" xmlns:xlink="http://www.w3.org/1999/xlink" x="0px" y="0px"
	 viewBox="0 0 884.8 166" style="enable-background:new 0 0 884.8 166;" xml:space="preserve">
<style type="text/css">
	.st0{fill:#FFFFFF;}
</style>
<g>
	<g>
		<path class="st0" d="M35.8,91.2c0-1.9,2.1-4.2,4-4.4c2.3-0.2,4.7,1.6,4.7,4c0,1.7,0.8,2.6,1.9,3.6c7.9,7.5,15.9,15.1,23.7,22.7
			c1.2,1.2,2.2,1.4,3.8,0.8c13.3-5.2,26.5-10.3,39.8-15.5c1.1-0.4,1.8-0.9,2.1-2.2c0.7-2.7,3.4-4,5.8-3.1c2.2,0.8,3.4,3.5,2.5,5.6
			c-1.1,2.6-3.7,3.5-6.3,2.1c-1.1-0.6-1.8-0.4-2.8,0c-13.9,5.4-27.8,10.8-41.7,16.2c-1.5,0.6-2.3,0.5-3.5-0.7
			c-8.5-8.2-17.1-16.2-25.6-24.3c-0.8-0.7-1.4-1.1-2.6-0.7C38.7,96.2,35.9,94,35.8,91.2z M40.3,89.6c-0.8,0.1-1.5,0.4-1.6,1.4
			c-0.1,1,0.5,1.6,1.5,1.7c1.1,0.1,1.6-0.4,1.7-1.4C41.9,90.4,41.6,89.7,40.3,89.6z M120.2,99.7c-1.2,0-1.7,0.7-1.7,1.6
			c-0.1,1,0.7,1.6,1.6,1.6c1,0,1.5-0.7,1.6-1.6C121.8,100.2,121.1,99.8,120.2,99.7z"/>
		<path d="M25.4,25.8c-1.9-0.8-2.3,1.2-3.1,2.1c-3.4,3.7-6.6,7.6-10.1,11.3c-1,1.1-0.6,1.4,0.1,2.2c6.6,7.4,13.2,14.8,19.8,22.2
			c2.5,2.8,2.5,2.7,0.3,5.5c-4.5,5.6-9,11.2-13.6,16.8c-0.9,1.1-1.4,2-1,3.6c0.7,2.5-1.2,4.8-3.7,5.2c-2.4,0.4-4.6-1.3-5-3.7
			c-0.4-2.5,1.2-5,3.8-5c1.9,0,2.8-1,3.8-2.3c4.1-5.2,8.2-10.4,12.4-15.5c1.1-1.4,1.2-2.2-0.1-3.6c-6.9-7.5-13.6-15.3-20.5-22.8
			c-1.2-1.3-1.2-2,0-3.3c4.1-4.4,8-9,12-13.5c0.7-0.8,1.4-1.5,1.2-2.9c-0.4-3,1.5-5.1,4.1-5.2c2.4-0.1,4.6,2,4.6,4.5
			C30.7,24.3,28.8,25.9,25.4,25.8z M27.6,21.6c0-0.9-0.3-1.4-1.2-1.5c-1-0.1-1.7,0.4-1.7,1.4c0,0.9,0.6,1.6,1.6,1.6
			C27.1,23,27.7,22.5,27.6,21.6z M13.7,88.9c-1,0-1.6,0.6-1.6,1.4c0,1,0.7,1.6,1.6,1.6c0.9,0,1.4-0.7,1.4-1.5
			C15.1,89.4,14.4,89.1,13.7,88.9z"/>
		<path class="st0" d="M127.2,134.1c7.1-0.4,13.6-0.7,20.1-1c1.2-0.1,2.3-0.5,3.2-1.3c6.8-5.8,13.7-11.6,20.6-17.3
			c0.9-0.7,1.2-1.4,1.2-2.6c0-3,2.1-5,4.8-4.7c2.6,0.2,4.4,2.7,4,5.5c-0.3,2.1-2.8,3.9-5.1,3.4c-1.4-0.3-2.2,0.1-3.2,0.9
			c-7,5.9-14,11.8-21,17.8c-1.6,1.4-3.3,1.2-5,1.3c-7.4,0.5-14.7,0.8-22.1,1.3c-1.4,0.1-2.2-0.5-3.1-1.4c-4.6-4.6-9.3-9.2-13.9-13.8
			c-0.9-0.9-1.7-1.4-3.1-1.4c-2.8,0.1-4.8-1.9-4.7-4.5c0-2.4,2.2-4.5,4.6-4.5c2.5,0.1,4.5,2.3,4.2,5c-0.2,1.5,0.3,2.4,1.3,3.3
			c4.4,4.3,8.8,8.5,13,12.9C124.5,134.8,126.2,133.9,127.2,134.1z M105.9,116.3c-0.2-0.8-0.6-1.4-1.5-1.4c-1,0.1-1.5,0.7-1.4,1.7
			c0.1,0.9,0.7,1.3,1.6,1.2C105.5,117.8,105.9,117.2,105.9,116.3z M178.2,111.4c0-0.5-0.4-1.1-1.3-1.1c-0.9-0.1-1.5,0.4-1.6,1.2
			c-0.1,1,0.5,1.6,1.4,1.7C177.6,113.3,178.1,112.7,178.2,111.4z"/>
		<path class="st0" d="M130.1,89.4c-0.3-0.1-1-0.1-1.4-0.4c-1.7-1.7-3.4-0.8-5.2-0.2c-15.6,5.9-31.2,11.9-46.8,17.9
			c-1.6,0.6-2.3,0.1-3.3-0.9C68.3,100.4,63,95,57.8,89.6c-0.9-0.9-1.6-1.4-3-1.2c-2.7,0.5-4.9-1.3-5.2-3.9c-0.3-2.2,2-4.6,4.4-4.8
			c2.3-0.1,4.4,2,4.4,4.6c0,1.4,0.5,2.4,1.4,3.3c4.9,5,9.7,9.9,14.5,15c1.1,1.2,2.1,1.3,3.6,0.8c15.4-5.9,30.9-11.8,46.3-17.6
			c1.4-0.5,1.8-1.5,2.4-2.7c1-2.1,3.4-3.1,5.3-2.2c2,0.8,3.1,2.3,2.9,4.6C134.5,87.6,132.5,89.4,130.1,89.4z M131.8,85.1
			c0.1-1-0.4-1.6-1.4-1.7c-1,0-1.6,0.4-1.6,1.4c0,0.9,0.5,1.6,1.5,1.7C131.4,86.6,131.7,86,131.8,85.1z M55.6,84.2
			c-0.1-1.1-0.7-1.7-1.7-1.6c-1,0.1-1.5,0.7-1.4,1.7c0.1,1,0.7,1.4,1.5,1.3C54.9,85.6,55.6,85.2,55.6,84.2z"/>
		<path class="st0" d="M80.1,14.4c0.3-1.7,1.1-3.1,2.7-3.8c1.7-0.7,3.3-0.4,4.7,0.8c1.3,1.2,2,2.9,1.2,4.4c-1.2,2.1-0.3,3.8,0.5,5.7
			c0.9,1.9,1.9,3.8,2.5,5.8c0.6,1.7,1.4,1.8,3,1.3c9.5-3.1,19.1-6.1,28.7-8.9c2-0.6,2.1-1.4,1.2-3c-0.7-1.3-1.3-2.8-1.9-4.2
			c-0.8-2-1.6-3.6-4.1-4.1c-2.4-0.5-3.4-3.3-2.6-5.5c0.9-2.3,3.2-3.3,5.6-2.6c2.2,0.7,3.6,3.2,2.6,5.5c-0.7,1.6-0.3,2.7,0.3,4.1
			c1.4,3,2.7,6,4.1,9c0.6,1.2,0.8,1.8-0.8,2.3c-11.9,3.7-23.8,7.4-35.7,11.2c-1.4,0.4-1.6-0.3-2-1.1c-1.4-3.3-2.8-6.5-4.2-9.8
			c-0.5-1.3-1-2.3-2.7-2.6C81.2,18.4,80.2,16.6,80.1,14.4z M121.9,4.5c-0.1-1-0.6-1.6-1.5-1.7c-0.8,0-1.4,0.5-1.5,1.4
			c-0.1,1.1,0.5,1.5,1.5,1.6C121.2,5.8,121.7,5.4,121.9,4.5z M84.7,13.2c-0.8,0.1-1.6,0.3-1.6,1.5c0,0.9,0.6,1.4,1.5,1.4
			c0.9,0,1.5-0.5,1.5-1.4C86.1,13.9,85.7,13.3,84.7,13.2z"/>
		<path d="M48.7,54.3c-0.1-3.6,3.4-5.8,6.5-4.2c1.2,0.7,2.2,0.6,3.3,0.1c2.9-1.2,5.8-2.3,8.7-3.6c1.6-0.7,2.5-0.5,3.6,0.9
			C80.1,58.3,89.6,69.1,99,79.9c1,1.2,2,2,3.8,1.9c2.5-0.1,4.4,2.4,4.2,4.7c-0.2,2.3-2.5,4.3-4.7,4.2c-2.6-0.1-4.7-2.5-4.2-5.1
			c0.3-1.6-0.2-2.5-1.1-3.6C88,71.8,78.9,61.4,69.8,50.9c-1-1.1-1.8-1.5-3.2-0.8c-1.8,0.9-3.8,1.5-5.7,2.3c-1.7,0.7-3.3,1.1-3.8,3.5
			c-0.5,2.2-2.8,2.9-5,2.4C49.9,57.8,48.9,56.2,48.7,54.3z M104.1,86.2c-0.2-0.8-0.7-1.4-1.5-1.3c-0.8,0.1-1.5,0.5-1.4,1.4
			c0.1,0.9,0.6,1.6,1.6,1.5C103.5,87.6,104,87,104.1,86.2z M54.7,54c0-0.9-0.5-1.4-1.4-1.5c-0.9-0.1-1.5,0.4-1.6,1.3
			c-0.1,1,0.5,1.6,1.5,1.6C54.1,55.5,54.6,54.9,54.7,54z"/>
		<path class="st0" d="M156.2,30c1.7,0.2,3.2,1.3,3.6,3.5c0.4,2-0.1,3.9-2.2,4.6c-2.1,0.6-2.6,2-3.2,3.8c-2.3,7.3-4.7,14.5-7.1,21.8
			c-0.6,1.8-0.2,2.5,1.5,3.2c7.5,3.1,15,6.3,22.5,9.4c1.1,0.5,2,0.9,3.3,0.1c2.3-1.4,4.8-0.4,6,1.9c1,2,0.2,4.7-1.8,5.7
			c-2.5,1.2-5.4,0.4-6.1-2.2c-0.6-2.2-2.1-2.8-3.8-3.5c-8.1-3.3-16.1-6.8-24.2-10.1c-1.8-0.7-1.4-1.7-1-3c2.8-8.5,5.5-16.9,8.3-25.4
			c0.4-1.2,0.5-2-0.3-3.2C150,33.5,152.3,29.9,156.2,30z M176.6,78.7c-1.1,0-1.5,0.6-1.4,1.4c0.1,1,0.7,1.6,1.7,1.5
			c0.8-0.1,1.5-0.5,1.4-1.4C178.2,79.1,177.4,78.8,176.6,78.7z M155.6,32.8c-1,0.1-1.5,0.6-1.5,1.6c0,0.9,0.5,1.4,1.4,1.4
			c1,0,1.6-0.5,1.5-1.6C157,33.3,156.5,32.9,155.6,32.8z"/>
		<path d="M27.7,40.8c0,2.8-1.9,4.9-4.5,4.9c-2.3,0-4.6-2.3-4.5-4.6c0.1-2.5,2.4-4.7,5-4.3c1.4,0.2,2.3-0.3,3.1-1.2
			c3.5-3.7,7-7.3,10.5-11.1c1.2-1.3,2.6-1.9,4.2-2.2c8.3-1.6,16.6-3.2,25-4.7c1.4-0.3,2.4-0.7,3.1-2.1c1.3-2.4,3.9-3,6.1-1.6
			c2.2,1.4,2.9,4.1,1.5,6.2c-1.5,2.2-4.2,2.9-6.4,1.2c-1.2-0.9-2.1-1-3.4-0.7c-8.3,1.6-16.6,3.2-25,4.7c-1.1,0.2-1.9,0.7-2.6,1.4
			c-3.6,3.7-7.2,7.5-10.8,11.2C28,38.7,27.2,39.5,27.7,40.8z M24.5,40.4c0-0.3-0.6-0.6-1.5-0.5c-0.8,0.1-1.2,0.7-1.1,1.4
			c0.1,0.9,0.6,1.4,1.6,1.2C24.3,42.4,24.6,41.9,24.5,40.4z M73.3,16.3c-0.7,0.1-1.3,0.4-1.3,1.3c0,0.9,0.4,1.5,1.3,1.5
			c0.9,0,1.3-0.6,1.3-1.5C74.5,16.7,74,16.4,73.3,16.3z"/>
		<path class="st0" d="M133,160.8c0.5-1.1-0.2-1.8-1-2.5c-11.6-11.2-23.1-22.4-34.7-33.7c-0.7-0.7-1.3-1-2.4-0.8
			c-2.9,0.4-5.1-1.6-5.1-4.3c0-2.5,2-4.6,4.5-4.6c2.6,0,4.5,2.1,4.3,4.9c-0.1,1.2,0.2,2.1,1.1,2.9c11.5,11.1,22.9,22.2,34.4,33.3
			c0.8,0.8,1.5,1.3,2.8,1.1c3.1-0.3,4.9,1.4,5,4.3c0.1,2.5-1.9,4.5-4.4,4.5C134.6,165.9,132.9,164,133,160.8z M137.5,163
			c0.7,0,1.3-0.5,1.3-1.4c0.1-0.9-0.5-1.5-1.3-1.5c-1-0.1-1.7,0.5-1.7,1.5C135.9,162.4,136.5,162.9,137.5,163z M95.8,119.4
			c-0.2-0.6-0.5-1.3-1.4-1.4c-0.9-0.1-1.5,0.3-1.6,1.2c-0.1,1,0.3,1.7,1.4,1.7C95,120.9,95.5,120.4,95.8,119.4z"/>
		<path class="st0" d="M185.4,99.6c-2,0-4-1.8-4.3-3.9c-0.4-2.3,0.9-4.5,3.4-4.9c2.1-0.3,2.8-1.7,3.9-3c3.9-4.4,3.6-8.5,0.6-13.5
			c-3.8-6.4-6.9-13.2-10.2-19.9c-0.5-1.1-1.1-1.6-2.4-1.9c-2.7-0.6-4.2-3.2-3.4-5.6c0.8-2.5,3.5-3.8,5.9-2.9
			c2.4,0.9,3.6,3.6,2.4,6.1c-0.6,1.2-0.4,2,0.1,3c3.6,7,7.2,14,10.8,21c1,1.9,1.5,4,2.9,5.8c0.4,0.6,0.5,1.6-0.2,2.6
			c-1.3,1.8-2.3,3.7-3.5,5.6c-1.3,2-2.7,3.8-1.8,6.7C190.6,97.3,188,99.6,185.4,99.6z M177.4,46.7c-0.7,0.2-1.4,0.5-1.4,1.4
			c0,1.1,0.6,1.6,1.5,1.5c0.9,0,1.4-0.6,1.4-1.5C178.8,47.3,178.3,46.8,177.4,46.7z M185.5,96.5c0.8-0.2,1.6-0.7,1.5-1.7
			c-0.1-0.8-0.8-1.4-1.6-1.3c-0.8,0.1-1.4,0.6-1.4,1.5C184.1,96,184.6,96.5,185.5,96.5z"/>
		<path class="st0" d="M162.6,90c-2.2,0.1-3.7-1.1-4.2-3c-0.4-1.3-1.1-1.9-2.2-2.4c-10-4.2-20-8.4-30-12.6c-1.7-0.7-2-1.3-1.2-2.9
			c1-2.2,1.8-4.6,2.7-6.9c0.7-1.9,1.6-3.5,0.2-5.7c-1.2-1.9,0.3-4.5,2.4-5.4c2.1-0.8,4.6,0.1,5.6,2.2c1,2.1,0.4,4.9-1.9,5.6
			c-2.7,0.8-3.2,2.6-4,4.7c-2.4,6-2.4,6,3.6,8.5c7.9,3.3,15.8,6.6,23.6,10c1.5,0.7,2.4,0,3.5-0.5c1.8-0.9,3.5-0.4,4.8,1
			c1.3,1.4,1.6,3,0.9,4.7C165.7,88.9,164.5,90.2,162.6,90z M131.4,53.8c-0.8,0.1-1.2,0.7-1.1,1.7c0.1,0.8,0.6,1.3,1.5,1.3
			c1,0,1.6-0.6,1.5-1.6C133.4,54.2,132.8,53.7,131.4,53.8z M164,85.6c-0.1-0.9-0.6-1.6-1.6-1.5c-0.8,0.1-1.5,0.5-1.5,1.4
			c0,0.9,0.5,1.6,1.5,1.7C163.4,87.3,163.8,86.6,164,85.6z"/>
		<path d="M110.8,14.6c-0.2,2.1-1.2,3.5-3,4.2c-1.7,0.7-3.1,0.2-4.4-1c-1.2-1.2-1.9-2.6-1-4.3c0.8-1.4,0.1-2.1-0.8-3.2
			c-3.2-4.3-6.9-4.7-12-3.6C79.2,9,68.5,10.5,57.9,12.4c-4.5,0.8-9,1.6-13.5,2.1c-1.3,0.2-1.4,0.9-1.8,1.7c-0.9,1.8-2.3,2.7-4.3,2.4
			c-2.1-0.2-3.2-1.5-3.8-3.5c-0.5-1.5,0.4-2.8,1.2-3.6c0.9-0.9,2.6-2.3,3.7-1.3c4.2,3.5,8.6,1,12.6,0.4c11.1-1.6,22-3.9,33.1-5.8
			c3.6-0.6,7.2-1,10.7-1.7c1.2-0.3,1.9,0,2.7,0.8c1.3,1.3,2.6,2.6,4,3.9c1.5,1.4,2.6,3.1,5.1,3.3C109.3,11.1,110.5,12.8,110.8,14.6z
			 M108.1,14.7c0-1.2-0.8-1.7-1.8-1.6c-1,0.1-1.6,0.8-1.6,1.9c0,1.1,0.8,1.4,1.7,1.4C107.6,16.5,108.1,15.9,108.1,14.7z M39.1,16
			c1,0.2,1.3-0.5,1.3-1.5c0-1-0.4-1.5-1.5-1.5c-1.2,0-1.6,0.5-1.6,1.7C37.4,15.7,37.9,16.1,39.1,16z"/>
		<path class="st0" d="M152.1,21.7c-2.8,0-4.7-1.2-5.1-3.4c-0.5-2.4,0.7-3.9,2.7-4.9c2.4-1.2,6,0.8,5.9,3.5c-0.1,2.2,0.8,3.6,2.3,5
			c4.7,4.3,9.2,8.8,13.9,13.1c0.9,0.9,1.1,1.6,0.8,2.8c-1.7,6.4-3.1,12.8-4.8,19.2c-0.3,1.1-0.3,1.8,0.5,2.8
			c1.8,2.5,1.4,4.9-0.9,6.4c-2.2,1.4-4.6,1-6-1.2c-1.5-2.4-0.9-4.9,1.9-6.3c1.1-0.6,1.4-1.3,1.7-2.3c1.5-6,2.9-12,4.5-17.9
			c0.3-1.2,0-1.9-0.8-2.6c-4.6-4.3-9.1-8.6-13.6-12.9C154.2,22.1,153.3,21.2,152.1,21.7z M165,61c-0.9,0.1-1.6,0.4-1.7,1.5
			c-0.1,1,0.5,1.6,1.4,1.7c1.1,0.1,1.7-0.5,1.8-1.6C166.7,61.5,165.9,61.2,165,61z M153,17.4c-0.2-0.9-0.7-1.5-1.7-1.6
			c-1.1,0-1.5,0.7-1.5,1.6c0,1,0.5,1.5,1.6,1.5C152.3,19,152.9,18.4,153,17.4z"/>
		<path class="st0" d="M114.7,30.6c0.8,0,1.7,0,2.2,0.5c1.6,1.9,3.5,1.1,5.3,0.6c6.3-1.8,12.5-3.7,18.8-5.4c1.7-0.5,2-1.1,1.3-2.6
			c-0.9-2-1.6-4.1-2.4-6.2c-0.7-1.9-1.4-3.4-3.6-4.1c-2.2-0.6-3-3.6-2-5.8c1-2.2,3.7-3.2,5.8-2.1c2.2,1.1,3.4,4.2,2,6.3
			c-0.8,1.2-0.6,2-0.2,3c1.3,3.6,2.6,7.2,4.1,10.7c0.7,1.6,0.5,2.3-1.3,2.8c-7.7,2.1-15.3,4.4-23,6.6c-1.4,0.4-2.5,0.8-3.3,2.4
			c-1,1.9-2.9,2.8-5.2,1.9c-2.1-0.8-3.2-2.8-2.8-4.8C110.8,32.1,112.5,30.6,114.7,30.6z M114.8,33.4c-1.1,0-1.5,0.7-1.6,1.6
			c0,0.9,0.6,1.4,1.4,1.5c1,0.1,1.6-0.5,1.7-1.5C116.3,34,115.7,33.5,114.8,33.4z M139.8,9.6c0-1.1-0.7-1.2-1.5-1.2
			c-0.9,0-1.5,0.2-1.4,1.2c0.1,0.8,0.5,1.4,1.4,1.4C139.2,11,139.7,10.5,139.8,9.6z"/>
		<path d="M41.3,54.7c2.7,0,5,2.5,4.4,5.1c-0.4,1.6,0.2,2.4,1.1,3.3c0.1,0.1,0.1,0.1,0.2,0.2c1.5,1.8,4.4,3.3,4.3,5.4
			c-0.1,1.9-2.5,3.6-4,5.4c-4.7,5.7-9.4,11.3-14.1,17C32.2,92,31.5,93,32,94.7c0.6,2.3-1.3,4.6-3.6,4.9c-2.3,0.3-4.5-1.3-4.9-3.4
			c-0.4-2.5,1.2-5.2,3.6-5.2c2.2,0.1,3.2-1.1,4.3-2.5c5.1-6.1,10.2-12.2,15.3-18.3c1.1-1.3,1.2-2.2-0.1-3.3c-1.8-1.7-3-3.9-6.2-3.7
			c-2.1,0.1-3.6-2.5-3.4-4.6C37.3,56.5,39.3,54.7,41.3,54.7z M27.8,96.9c1-0.2,1.5-0.9,1.3-1.9c-0.1-0.9-0.7-1.3-1.6-1.2
			c-0.9,0.1-1.5,0.6-1.4,1.5C26.3,96.2,26.8,96.8,27.8,96.9z M42.9,59.1c-0.1-0.8-0.4-1.4-1.4-1.4c-1,0-1.6,0.4-1.6,1.4
			c0,0.9,0.6,1.4,1.4,1.5C42.4,60.8,42.8,60.1,42.9,59.1z"/>
		<path class="st0" d="M147.1,39.7c0.1,1.8-0.8,3.1-2.3,4c-1.4,0.8-3,0.8-4.3-0.2c-1.3-1.1-2.5-1-4-0.5c-7.8,2.5-15.7,4.8-23.5,7.2
			c-1.4,0.4-2.5,0.5-3.6-0.6c-1.6-1.6-3.4-3-5.2-4.5c-1.7-1.5-3.1-3.4-6.1-2.6c-2,0.5-4-2.3-3.9-4.4c0.1-2.2,2.1-4.2,4.3-4.2
			c2-0.1,4.3,1.9,4.1,4c-0.2,2.3,1.3,3.2,2.5,4.6c3.9,4.5,8.1,5.8,13.9,3.2c5.6-2.5,11.8-3.7,17.7-5.5c1-0.3,1.6-0.9,2.1-1.9
			c0.9-2.1,2.7-3.1,5-2.5C145.7,36.3,147.1,37.4,147.1,39.7z M98.5,39.8c0.9-0.1,1.5-0.5,1.6-1.5c0.1-1-0.4-1.7-1.4-1.7
			c-0.8,0-1.6,0.4-1.6,1.5C97,39,97.3,39.7,98.5,39.8z M142.9,38.4c-1-0.1-1.5,0.3-1.5,1.4c0,0.9,0.3,1.5,1.2,1.6
			c1,0.1,1.6-0.4,1.7-1.4C144.4,39.1,144,38.4,142.9,38.4z"/>
		<path class="st0" d="M178.9,100c-0.3,2-1.3,3.6-3.5,4.1c-2.3,0.5-4.2-0.4-5-2.5c-0.6-1.6-1.5-2-2.9-2.4c-4.7-1.4-9.5-2.5-14.1-4.2
			c-4-1.4-7.8-1.6-11.8,0.1c-1.8,0.8-3.6,1-4.3,3.5c-0.6,2.2-3.7,3-5.8,1.9c-2-1-2.9-3.6-2.1-5.7c0.9-2.2,3.6-3.6,5.6-2.4
			c1.8,1.1,3.4,0.9,5,0.1c5.8-3.1,11.5-1.3,17.1,0.5c3.1,1,6.3,2,9.5,2.9c2,0.6,3.8,1.3,6.1-0.1C175.5,94.1,179,96.7,178.9,100z
			 M175.9,99.5c-0.2-0.7-0.7-1.3-1.6-1.3c-1,0-1.5,0.7-1.4,1.7c0.1,0.9,0.7,1.3,1.6,1.2C175.4,101.1,175.9,100.5,175.9,99.5z
			 M135.1,96.6c-0.1-0.9-0.5-1.5-1.4-1.5c-1-0.1-1.6,0.5-1.6,1.5c0,0.9,0.6,1.4,1.5,1.4C134.5,98,134.9,97.4,135.1,96.6z"/>
		<path d="M78.7,29.9c-0.2,1.9-0.8,3.3-2.4,4.2c-1.6,0.8-3.2,0.7-4.5-0.4c-1-0.8-1.9-1.2-3.2-0.9c-6.9,1.5-13.9,3-20.8,4.3
			c-3.1,0.6-4.2,3.2-6.1,4.9c-1.2,1-2.2,2.4-3.3,3.5c-1.3,1.4-2.6,2.5-2.1,4.9c0.4,2.2-2,4.3-4.1,4.3c-2.3,0-4.4-1.8-4.6-3.8
			c-0.2-2.5,1.6-5,4.1-4.8c2.3,0.2,3.6-1,4.9-2.5c0.5-0.6,1-1.1,1.5-1.8c3.9-5.3,9-8.3,15.7-8.9c4.7-0.4,9.3-1.9,13.9-2.8
			c1.3-0.3,2.2-0.7,2.9-2c1-1.9,2.8-2.8,4.9-2.1C77.3,26.8,78.4,28.2,78.7,29.9z M32.1,48.7c-1.2-0.1-1.7,0.7-1.7,1.5
			c-0.1,0.8,0.3,1.7,1.4,1.8c1,0,1.8-0.3,1.9-1.5C33.7,49.3,32.9,49,32.1,48.7z M76,30.4c0.1-1.1-0.6-1.6-1.5-1.7
			c-1.1-0.1-1.8,0.4-1.8,1.5c0,1,0.7,1.5,1.6,1.5C75.2,31.8,75.9,31.4,76,30.4z"/>
		<path class="st0" d="M104.5,61c1-0.1,2-0.3,3-0.3c1.5-0.2,2.8-0.4,3.6-2.2c1-2.3,4-2.7,6.2-1.3c1.9,1.2,2.5,3.9,1.3,5.9
			c-1.2,2.1-4,3.1-5.9,1.6c-2-1.6-3.9-1.5-5.9-0.9c-3.4,0.9-5.7,0-8-2.9c-4-5.1-8.4-9.7-12.7-14.6c-0.9-1-1.7-1.6-3.1-1.8
			c-2.6-0.4-4.1-2.8-3.6-5.2c0.6-2.5,3.3-4.1,5.7-3.4c2.3,0.7,3.7,3.3,2.8,5.7c-0.4,1.2-0.5,1.9,0.4,2.9c4.6,5.1,9.1,10.3,13.6,15.4
			C102.6,60.7,103.3,61.4,104.5,61z M116.3,60.8c-0.2-0.9-0.8-1.5-1.8-1.4c-1,0.1-1.2,0.7-1.2,1.5c0,0.9,0.5,1.4,1.4,1.4
			C115.6,62.3,116.2,61.8,116.3,60.8z M85.2,40.1c0-0.9-0.5-1.5-1.4-1.5c-1-0.1-1.6,0.6-1.6,1.5c0,1,0.6,1.5,1.6,1.5
			C84.7,41.5,85.1,40.9,85.2,40.1z"/>
		<path class="st0" d="M115.8,118c-2.1-0.1-3.4-1.3-4-2.9c-0.7-1.8-0.1-3.5,1.5-4.8c1.4-1.1,2.9-1.6,4.4-0.4c1.2,1,2.5,1,3.8,0.7
			c8.4-1.9,16.7-3.8,25.1-5.8c1.4-0.3,2.6-0.1,3.7,0.9c1.7,1.5,3.6,2.8,5.2,4.4c1.3,1.2,2.4,2,4.4,1.4c2.1-0.6,4.2,1.4,4.7,3.9
			c0.3,1.7-1.5,4.2-3.4,4.6c-2,0.5-5-1.2-4.9-3.2c0.2-3-1.9-4.1-3.5-5.6c-1.1-1-2.3-2-3.5-2.9c-0.9-0.7-1.9-0.9-3.1-0.6
			c-7.8,1.8-15.6,3.6-23.4,5.4c-1.6,0.3-2.7,0.7-3.2,2.5C119,117,117.4,117.9,115.8,118z M117.4,113.7c0-1-0.4-1.7-1.4-1.7
			c-1.2-0.1-1.6,0.7-1.6,1.8c0,1,0.5,1.6,1.6,1.6C116.9,115.3,117.4,114.7,117.4,113.7z M160.2,113.9c-1,0.1-1.5,0.7-1.5,1.7
			c0,1.1,0.5,1.8,1.7,1.7c1.1-0.1,1.3-0.8,1.4-1.8C161.7,114.5,161.2,114,160.2,113.9z"/>
		<path d="M60.7,71.6c-2.8,0.1-4.8-1.7-5-4.2c-0.1-2.4,2-4.6,4.5-4.6c2.4,0,4.7,2.1,4.3,4.6c-0.2,1.6,0.4,2.5,1.4,3.5
			c4.9,5,9.7,10,14.5,15c0.7,0.8,1.3,1,2.4,0.8c2.9-0.5,5.2,1.3,5.4,4c0.2,2.4-1.9,4.7-4.3,4.7c-2.7,0-4.7-2.1-4.5-5
			c0.1-1.1-0.3-1.7-1-2.4c-4.9-5-9.8-10.1-14.7-15.2C62.9,72,62.1,70.8,60.7,71.6z M83.6,89.4c-0.9,0.2-1.5,0.7-1.4,1.7
			c0.1,0.9,0.6,1.3,1.5,1.3c0.9,0,1.4-0.4,1.5-1.3C85.3,90.1,84.7,89.6,83.6,89.4z M60.2,68.8c0.8-0.2,1.6-0.4,1.6-1.5
			c0-0.9-0.5-1.4-1.4-1.5c-1-0.1-1.5,0.5-1.6,1.5C58.7,68.2,59.3,68.6,60.2,68.8z"/>
		<path d="M10.1,81.6c-2.7,0-5.1-2.4-4.5-5c0.4-1.8-0.1-2.8-1.3-3.7c-3.6-3-5-6.6-3.2-11.1c0.4-1.1,0.4-2.3,0.6-3.5
			C2,56.5,2.2,55,0.7,53.3c-1.6-1.8-0.5-4.8,1.7-6.1c2-1.2,4.8-0.4,6,1.6c1.2,2,0.8,4.9-1.4,5.9c-1.9,0.9-2.4,2.1-2.4,3.9
			c0,0.9-0.2,1.9-0.5,2.7c-1.3,3.8-0.6,7,2.6,9.6c1,0.8,1.6,1.6,3.1,1.5c2.5-0.2,4.5,2,4.5,4.5C14.4,79.5,12.3,81.6,10.1,81.6z
			 M4.3,49.7c-0.7,0.2-1.2,0.6-1.2,1.4c0,0.9,0.5,1.4,1.4,1.5c0.9,0,1.4-0.5,1.5-1.4C6.2,50,4.9,50.3,4.3,49.7z M9.8,75.6
			c-0.4,0.5-1.4,0.7-1.3,1.8c0.1,0.9,0.8,1.4,1.6,1.3c0.8-0.1,1.4-0.6,1.3-1.6C11.4,76.1,10.8,75.7,9.8,75.6z"/>
		<path class="st0" d="M153.4,121c-0.4,1.2-1.2,2.4-2.8,3.1c-1.8,0.8-3.5,0.3-4.6-0.9c-1-1-1.8-1.3-3.1-1.1
			c-4.3,0.5-8.6,1.1-12.9,1.5c-1,0.1-1.4,0.7-1.7,1.5c-1.2,2.7-3.7,3.6-6,2.5c-2.3-1.1-3.2-3.9-2-6c1.3-2.4,4-3,6.6-1.3
			c0.9,0.6,1.7,0.7,2.6,0.6c4.5-0.5,8.9-1.1,13.4-1.6c1-0.1,1.8-0.4,2.4-1.5c1.1-1.9,2.9-2.5,5-1.9
			C152.6,116.6,153.3,118.4,153.4,121z M148.9,121.6c0.9,0,1.4-0.5,1.5-1.4c0.1-1-0.5-1.6-1.5-1.7c-0.9-0.1-1.4,0.5-1.5,1.4
			C147.4,120.9,148,121.5,148.9,121.6z M124.2,125.2c1-0.1,1.5-0.7,1.5-1.6c0-1-0.7-1.5-1.7-1.5c-0.8,0-1.4,0.6-1.4,1.5
			C122.6,124.7,123.2,125.1,124.2,125.2z"/>
		<path class="st0" d="M145.6,150.4c3-0.1,5,1.7,5,4.4c0,2.1-2.3,4.4-4.5,4.4c-2.4,0-4.4-2.3-4.2-5c0.1-0.7,0.1-1.3-0.5-1.8
			c-2.1-1.8-3.2-4.7-6.8-4.5c-2.3,0.1-4.2-2.7-4-4.7c0.3-2.3,2.6-4.1,4.8-3.9c2.6,0.3,4.2,2.2,3.9,4.9
			C139.1,147.1,142.6,150.6,145.6,150.4z M136.7,143.7c0-1-0.4-1.6-1.4-1.7c-1-0.1-1.6,0.5-1.8,1.4c-0.1,1,0.4,1.5,1.5,1.5
			C135.8,145,136.6,144.9,136.7,143.7z M147.8,154.6c-0.1-1-0.7-1.5-1.7-1.5c-0.9,0-1.6,0.5-1.5,1.4c0.1,1,0.7,1.7,1.9,1.6
			C147.4,156.1,147.7,155.4,147.8,154.6z"/>
	</g>
	<g>
		<path d="M270.5,101.9V45.2h23.5c2.4,0,4.7,0.5,6.7,1.6c2,1,3.8,2.4,5.3,4.1c1.5,1.7,2.7,3.6,3.5,5.7c0.9,2.1,1.3,4.3,1.3,6.5
			c0,2.3-0.4,4.6-1.2,6.7c-0.8,2.2-1.9,4.1-3.4,5.7c-1.4,1.7-3.2,3-5.1,4c-2,1-4.2,1.5-6.7,1.5h-18.4v20.9H270.5z M276.1,76h18.1
			c1.7,0,3.2-0.4,4.5-1.1c1.4-0.7,2.5-1.7,3.5-2.9c1-1.2,1.7-2.6,2.2-4.2c0.5-1.6,0.8-3.2,0.8-4.9c0-1.8-0.3-3.4-0.9-5
			c-0.6-1.6-1.4-2.9-2.5-4.1c-1-1.2-2.3-2.1-3.7-2.8c-1.4-0.7-2.9-1-4.4-1h-17.6V76z"/>
		<path d="M320.1,101.9V45.2h24c2.4,0,4.7,0.5,6.7,1.6c2,1,3.8,2.4,5.3,4.1c1.5,1.7,2.6,3.6,3.5,5.7c0.8,2.1,1.2,4.3,1.2,6.5
			c0,2.1-0.3,4.1-0.9,5.9c-0.6,1.9-1.5,3.6-2.6,5.1c-1.1,1.5-2.4,2.8-4,3.8c-1.5,1-3.3,1.7-5.2,2.1l13.9,21.9h-6.3L342.5,81h-16.8
			v20.9H320.1z M325.7,76h18.5c1.6,0,3.2-0.4,4.5-1.1c1.4-0.7,2.5-1.7,3.5-2.9c1-1.2,1.7-2.6,2.2-4.2c0.5-1.5,0.8-3.2,0.8-4.9
			c0-1.7-0.3-3.3-0.9-4.9c-0.6-1.6-1.4-2.9-2.5-4.1c-1-1.2-2.3-2.1-3.7-2.8c-1.4-0.7-2.9-1-4.4-1h-18V76z"/>
		<path d="M395.1,102.3c-3.9,0-7.5-0.8-10.8-2.4c-3.3-1.6-6.1-3.8-8.4-6.5c-2.3-2.7-4.2-5.8-5.4-9.2c-1.3-3.5-1.9-7-1.9-10.6
			c0-3.8,0.7-7.4,2-10.9c1.4-3.5,3.2-6.5,5.6-9.2c2.4-2.7,5.2-4.8,8.5-6.3s6.8-2.4,10.5-2.4c3.9,0,7.5,0.8,10.8,2.5
			c3.3,1.7,6.1,3.9,8.4,6.6c2.3,2.7,4.1,5.8,5.4,9.2c1.3,3.4,1.9,6.9,1.9,10.5c0,3.8-0.7,7.4-2,10.9c-1.4,3.5-3.2,6.5-5.6,9.1
			c-2.4,2.6-5.2,4.7-8.4,6.3C402.4,101.5,398.9,102.3,395.1,102.3z M374.1,73.5c0,3.1,0.5,6.1,1.5,8.9c1,2.8,2.4,5.4,4.3,7.6
			c1.9,2.2,4.1,4,6.6,5.3c2.6,1.3,5.4,2,8.5,2c3.2,0,6.1-0.7,8.7-2.1c2.6-1.4,4.8-3.2,6.6-5.4c1.8-2.2,3.2-4.8,4.2-7.6
			c1-2.8,1.5-5.7,1.5-8.6c0-3.1-0.5-6.1-1.6-8.9c-1-2.8-2.5-5.4-4.4-7.5c-1.9-2.2-4.1-3.9-6.6-5.2c-2.6-1.3-5.4-2-8.5-2
			c-3.2,0-6.1,0.7-8.7,2c-2.6,1.4-4.8,3.2-6.6,5.4c-1.8,2.2-3.2,4.8-4.2,7.6C374.6,67.7,374.1,70.6,374.1,73.5z"/>
		<path class="st0" d="M473.2,93.6c-5.3,5.8-11.3,8.7-18.2,8.7c-3.8,0-7.4-0.8-10.6-2.5c-3.2-1.6-6-3.8-8.4-6.5
			c-2.4-2.7-4.2-5.8-5.5-9.2c-1.3-3.4-2-7-2-10.6c0-3.8,0.7-7.4,2-10.9c1.3-3.5,3.1-6.5,5.5-9.1c2.3-2.6,5.1-4.7,8.3-6.3
			c3.2-1.6,6.7-2.4,10.5-2.4c2.8,0,5.3,0.3,7.6,0.9c2.3,0.6,4.3,1.5,6.1,2.6c1.8,1.1,3.3,2.4,4.6,3.9s2.4,3.2,3.3,5l-4.3,2.9
			c-1.9-3.5-4.3-6.1-7.3-7.7c-3-1.6-6.4-2.5-10.1-2.5c-3.1,0-6,0.7-8.5,2c-2.5,1.3-4.7,3.1-6.5,5.3c-1.8,2.2-3.2,4.7-4.1,7.6
			c-1,2.8-1.4,5.8-1.4,8.8c0,3.2,0.5,6.2,1.6,9.1c1.1,2.9,2.6,5.4,4.5,7.5c1.9,2.2,4.2,3.9,6.7,5.1s5.4,1.9,8.4,1.9
			c3.2,0,6.3-0.8,9.3-2.3c3-1.5,5.8-3.9,8.5-7.2v-9.4h-12.6V74h17.3v27.9h-4.7V93.6z"/>
		<path class="st0" d="M489.4,101.9V45.2h24c2.4,0,4.7,0.5,6.7,1.6c2,1,3.8,2.4,5.3,4.1c1.5,1.7,2.6,3.6,3.5,5.7
			c0.8,2.1,1.2,4.3,1.2,6.5c0,2.1-0.3,4.1-0.9,5.9c-0.6,1.9-1.5,3.6-2.6,5.1c-1.1,1.5-2.4,2.8-4,3.8c-1.5,1-3.3,1.7-5.2,2.1
			l13.9,21.9h-6.3L511.7,81H495v20.9H489.4z M495,76h18.5c1.6,0,3.2-0.4,4.5-1.1c1.4-0.7,2.5-1.7,3.5-2.9c1-1.2,1.7-2.6,2.2-4.2
			c0.5-1.5,0.8-3.2,0.8-4.9c0-1.7-0.3-3.3-0.9-4.9c-0.6-1.6-1.4-2.9-2.5-4.1c-1-1.2-2.3-2.1-3.7-2.8c-1.4-0.7-2.9-1-4.4-1h-18V76z"
			/>
		<path class="st0" d="M558.2,45.2h4.7l23.6,56.7h-5.9l-7.3-17.7h-25.5l-7.3,17.7h-6L558.2,45.2z M571.9,79.8l-11.4-28l-11.6,28
			H571.9z"/>
		<path class="st0" d="M644.8,101.9V55.3l-20.7,36h-3.3l-20.7-36v46.5h-5.6V45.2h5.7L622.5,84l22.3-38.8h5.7v56.7H644.8z"/>
		<path class="st0" d="M714.8,101.9V55.3l-20.7,36h-3.3l-20.7-36v46.5h-5.6V45.2h5.7L692.5,84l22.3-38.8h5.7v56.7H714.8z"/>
		<path class="st0" d="M772.7,96.9v5h-38.1V45.2H772v5h-31.8v20.4h27.7v4.7h-27.7v21.6H772.7z"/>
		<path class="st0" d="M783.3,101.9V45.2h24c2.4,0,4.7,0.5,6.7,1.6c2,1,3.8,2.4,5.3,4.1c1.5,1.7,2.6,3.6,3.5,5.7
			c0.8,2.1,1.2,4.3,1.2,6.5c0,2.1-0.3,4.1-0.9,5.9c-0.6,1.9-1.5,3.6-2.6,5.1c-1.1,1.5-2.4,2.8-4,3.8c-1.5,1-3.3,1.7-5.2,2.1
			l13.9,21.9H819L805.6,81h-16.8v20.9H783.3z M788.9,76h18.5c1.6,0,3.2-0.4,4.5-1.1c1.4-0.7,2.5-1.7,3.5-2.9c1-1.2,1.7-2.6,2.2-4.2
			c0.5-1.5,0.8-3.2,0.8-4.9c0-1.7-0.3-3.3-0.9-4.9c-0.6-1.6-1.4-2.9-2.5-4.1c-1-1.2-2.3-2.1-3.7-2.8c-1.4-0.7-2.9-1-4.4-1h-18V76z"
			/>
		<path class="st0" d="M858.2,102.3c-3.9,0-7.5-0.8-10.8-2.4c-3.3-1.6-6.1-3.8-8.4-6.5c-2.3-2.7-4.2-5.8-5.4-9.2
			c-1.3-3.5-1.9-7-1.9-10.6c0-3.8,0.7-7.4,2-10.9c1.4-3.5,3.2-6.5,5.6-9.2c2.4-2.7,5.2-4.8,8.5-6.3c3.2-1.6,6.8-2.4,10.5-2.4
			c3.9,0,7.5,0.8,10.8,2.5c3.3,1.7,6.1,3.9,8.4,6.6c2.3,2.7,4.1,5.8,5.4,9.2c1.3,3.4,1.9,6.9,1.9,10.5c0,3.8-0.7,7.4-2,10.9
			c-1.4,3.5-3.2,6.5-5.6,9.1c-2.4,2.6-5.2,4.7-8.4,6.3C865.5,101.5,862,102.3,858.2,102.3z M837.2,73.5c0,3.1,0.5,6.1,1.5,8.9
			c1,2.8,2.4,5.4,4.3,7.6c1.9,2.2,4.1,4,6.6,5.3c2.6,1.3,5.4,2,8.5,2c3.2,0,6.1-0.7,8.7-2.1c2.6-1.4,4.8-3.2,6.6-5.4
			c1.8-2.2,3.2-4.8,4.2-7.6c1-2.8,1.5-5.7,1.5-8.6c0-3.1-0.5-6.1-1.6-8.9c-1-2.8-2.5-5.4-4.4-7.5c-1.9-2.2-4.1-3.9-6.6-5.2
			c-2.6-1.3-5.4-2-8.5-2c-3.2,0-6.1,0.7-8.7,2c-2.6,1.4-4.8,3.2-6.6,5.4c-1.8,2.2-3.2,4.8-4.2,7.6C837.7,67.7,837.2,70.6,837.2,73.5
			z"/>
	</g>
</g>
</svg>
